<svg xmlns="http://www.w3.org/2000/svg" width="804" height="310" viewBox="0 0 804 310" version="1.1"><path d="" stroke="none" fill="#6480b3" fill-rule="evenodd"/><path d="" stroke="none" fill="#586d97" fill-rule="evenodd"/><path d="M 161 26.097 C 144.395 27.896, 130.896 37.120, 119.803 54.248 C 111.435 67.169, 113.834 65.868, 99.522 65.250 C 87.190 64.717, 82.932 65.660, 83.015 68.905 C 83.064 70.793, 85.265 72.358, 88.646 72.907 C 98.803 74.558, 89.969 82, 77.852 82 C 69.421 82, 68.924 81.637, 72 77.727 C 74.415 74.658, 74.450 74.087, 72.406 71.169 C 70.543 68.509, 69.489 68.983, 60.500 76.521 C 57.750 78.826, 52.276 82.818, 48.336 85.390 C 26.831 99.430, 26.194 107.196, 40.042 186.557 C 48.051 232.458, 50.124 239.101, 59.041 247.441 C 69.241 256.983, 82.014 260.639, 95.956 258.008 C 102.539 256.766, 102.677 256.786, 110.052 260.071 C 123.749 266.170, 135.753 265.585, 154.708 257.895 C 157.446 256.784, 158.926 256.855, 164.796 258.377 C 179.674 262.236, 199.877 252.992, 206.948 239.091 C 216.232 220.840, 233.322 113.376, 227.761 108.217 C 223.958 104.688, 223.454 106.197, 218.960 134.560 C 203.410 232.701, 201.024 240.521, 184.346 247.992 C 168.532 255.076, 162.693 252.364, 168.683 240.717 C 172.420 233.450, 172.860 222.186, 170.155 203 C 169.030 195.025, 167.825 186.025, 167.475 183 C 166.433 173.974, 165.183 170.281, 162.975 169.704 C 157.907 168.378, 156.989 173.754, 159.510 190 C 163.631 216.571, 163.667 232.157, 159.619 238.255 C 143.547 262.468, 111.397 261.095, 98.346 235.639 C 95.574 230.233, 96.120 211.768, 99.532 195.500 C 101.779 184.786, 101.487 155.830, 98.961 139 C 92.747 97.588, 96.397 91.967, 129.446 92.045 C 150.789 92.096, 151.246 92.205, 158.818 99.094 L 163.868 103.687 162.450 119.881 C 161.670 128.787, 160.578 138.870, 160.023 142.287 C 158.059 154.390, 158.926 159, 163.165 159 C 168.841 159, 174.436 111.039, 170.043 100.037 C 166.068 90.083, 198.585 86.833, 211.239 95.920 C 216.370 99.605, 220.315 99.798, 220.801 96.388 C 221.204 93.568, 217.048 88.801, 211.232 85.411 C 208.630 83.894, 202.675 79.736, 198 76.171 C 184.828 66.126, 183.217 65.589, 165 65.185 C 142.106 64.677, 145.710 55.010, 169.771 52.388 C 179.472 51.331, 180 50.641, 180 39 C 180 25.943, 177.582 24.301, 161 26.097 M 153.723 36.420 C 144.290 38.957, 136.880 45.286, 127.487 58.830 C 122.225 66.418, 120.320 68.258, 112.226 73.573 C 102.172 80.176, 97 84.631, 97 86.687 C 97 88.204, 99.595 88.465, 100.477 87.037 C 103.641 81.918, 145.430 81.060, 156 85.897 C 168.185 91.473, 163.552 83.445, 150 75.500 C 135.767 67.156, 134.697 63.611, 143.632 54.417 C 148.859 49.039, 156.333 45.410, 164.096 44.479 C 170.599 43.699, 171.495 43.254, 172.399 40.355 C 173.982 35.278, 165.004 33.386, 153.723 36.420 M 165 74.334 C 165 78.376, 171.743 81.396, 181.743 81.834 C 193.387 82.343, 193.885 80.861, 183.419 76.846 C 174.405 73.387, 165 72.105, 165 74.334 M 50.231 95.531 C 36.249 104.946, 36.197 109.136, 49.090 186.239 C 57.058 233.888, 61.036 242.895, 76.782 248.943 C 92.588 255.014, 95.595 253.011, 90.451 239.839 C 86.489 229.690, 86.314 225.619, 88.952 205 C 90.479 193.070, 90.169 140.417, 88.490 126.500 C 86.549 110.416, 86.630 107.144, 89.134 100.602 C 92.925 90.694, 63.172 86.815, 50.231 95.531" stroke="none" fill="#11306a" fill-rule="evenodd"/><path d="M 277.460 60.065 C 276.151 62.182, 277.996 67.660, 280.462 68.980 C 287.132 72.549, 286.870 127.473, 280.154 133.626 C 271.113 141.908, 310.581 145.367, 330.232 138.014 C 346.491 131.931, 349.820 114.127, 337.050 101.550 L 332.106 96.679 335.241 92.314 C 342.642 82.008, 339.612 68.414, 328.670 62.832 C 322.666 59.769, 279.098 57.415, 277.460 60.065 M 491 63.300 C 491 67.854, 492.311 70, 495.093 70 C 497.825 70, 498 71.827, 497.995 100.332 C 497.989 129.579, 498.332 127.347, 492.601 135.426 C 489.226 140.185, 490.523 140.433, 520.924 140.846 L 548.781 141.224 549.966 134.202 C 552.359 120.014, 546.701 114.515, 539.908 124.429 C 536.804 128.959, 534.090 130.095, 524.832 130.740 L 517.164 131.275 516.457 126.562 C 515.553 120.531, 516.933 74.031, 518.081 71.865 C 518.557 70.966, 520.084 69.945, 521.474 69.596 C 523.752 69.024, 524 68.474, 524 63.981 L 524 59 507.500 59 L 491 59 491 63.300 M 353.200 61.200 C 351.204 63.196, 351.821 65.095, 355.637 68.694 C 362.310 74.988, 362.105 126.828, 355.381 133.552 C 349.458 139.475, 349.444 139.472, 383.518 139.765 C 418.325 140.063, 416.078 140.638, 416.749 131.264 C 417.537 120.251, 413.724 118.102, 405.482 124.913 C 400.316 129.182, 395.269 130.840, 384.750 131.723 L 378 132.290 378 118.770 C 378 105.250, 378 105.250, 381 104.650 C 386.376 103.575, 389.949 104.959, 392.588 109.140 C 395.076 113.081, 397.834 114.025, 401 112.019 C 402.503 111.066, 402.824 93.207, 401.417 88.750 C 400.401 85.530, 395.225 86.504, 392.961 90.342 C 390.617 94.314, 387.337 96, 381.953 96 L 378 96 378 83 L 378 70 387.949 70 C 397.898 70, 397.898 70, 400.568 73.500 C 407.622 82.749, 415.548 74.461, 411.025 62.565 C 409.916 59.649, 356.024 58.376, 353.200 61.200 M 424.170 61.750 C 422.910 64.200, 423.716 66.078, 427.356 69.178 C 430.500 71.856, 430.500 71.856, 430.500 100.952 L 430.500 130.049 426.750 133.587 C 420.024 139.934, 418.888 139.637, 453.170 140.511 L 481.839 141.242 482.984 137.371 C 485.705 128.168, 485.538 121.155, 482.570 120.026 C 478.890 118.627, 479.353 118.406, 474.134 124.053 C 468.893 129.724, 465.567 130.937, 455.159 130.976 L 448.818 131 449.159 102.153 C 449.525 71.193, 449.506 71.304, 454.878 68.730 C 458.540 66.975, 458.619 61.901, 455 60.895 C 449.051 59.240, 425.120 59.904, 424.170 61.750 M 304.035 69.934 C 300.521 76.500, 303.357 96.016, 307.821 95.990 C 322.658 95.904, 328.742 76.089, 315.961 69.480 C 311.729 67.291, 305.319 67.536, 304.035 69.934 M 304.750 104.631 C 303.188 105.091, 303 106.697, 303 119.573 L 303 134 308.599 134 C 330.409 134, 334.098 106.164, 312.500 104.561 C 309.200 104.316, 305.712 104.347, 304.750 104.631 M 278.750 149.080 C 276.107 150.619, 276.630 153.367, 280.429 157.915 C 286.725 165.451, 287.254 215.878, 281.090 220.945 C 277.247 224.104, 276.814 228.449, 280.250 229.370 C 283.937 230.358, 310.660 230.080, 313.435 229.025 C 318.677 227.032, 316.311 222.754, 309.065 221.126 C 297.834 218.603, 300.305 201.402, 312.112 199.920 C 349.792 195.189, 355.455 153.515, 319.026 149.041 C 308.216 147.713, 281.052 147.740, 278.750 149.080 M 352 148.693 C 349.607 149.180, 348.048 150.591, 348.015 152.300 C 348.007 152.739, 349.555 154.700, 351.455 156.656 C 357.242 162.615, 358.542 215.915, 353 220.037 C 346.849 224.613, 346.337 225.404, 347.913 227.893 C 349.371 230.196, 357.266 230.879, 383 230.925 C 409.617 230.973, 409.140 231.056, 410.836 226.101 C 415.830 211.516, 407.386 204.324, 399.464 216.415 C 397.255 219.786, 392.475 220.988, 381.250 220.994 L 372 221 372 207 L 372 193 378.085 193 C 383.783 193, 384.368 193.223, 387.269 196.500 C 393.994 204.096, 398 201.010, 398 188.234 C 398 174.185, 395.782 171.998, 388.069 178.443 C 385.341 180.721, 382.439 182.111, 379.486 182.554 C 371.990 183.679, 372 183.697, 372 169.383 L 372 156.704 379.815 157.306 C 389.294 158.037, 392.021 159.007, 397.292 163.518 C 405.820 170.818, 413.407 159.902, 406.089 150.861 C 404.213 148.543, 361.214 146.820, 352 148.693 M 421 148.818 C 415.928 150.368, 417.518 156.063, 423.750 158.668 C 428.500 160.654, 428.971 219.351, 424.250 221.024 C 410.027 226.065, 416.741 230, 439.565 230 L 456 230 456 226.475 C 456 222.726, 453.654 221, 448.557 221 C 444.913 221, 443.819 218.647, 443.254 209.597 L 442.728 201.163 447.614 200.531 C 478.344 196.552, 494.084 177.039, 481.382 158.668 C 475.600 150.305, 436.828 143.980, 421 148.818 M 492.500 148.648 C 486.594 150.324, 486.600 153.870, 492.515 158.118 L 497.029 161.360 496.765 190.840 L 496.500 220.320 492.500 221.436 C 479.841 224.968, 486.870 229.790, 505.774 230.542 C 527.784 231.418, 537.162 224.259, 518.860 220.552 C 515.582 219.888, 515.056 218.537, 514.310 208.868 C 513.640 200.181, 512.541 201.110, 525.461 199.451 C 555.558 195.587, 566.180 159.780, 539.986 150.486 C 535.405 148.860, 496.990 147.373, 492.500 148.648 M 562.797 148.680 C 561.860 148.927, 560.811 150.022, 560.464 151.113 C 559.846 153.062, 560.592 154.505, 565.177 160.232 C 570.452 166.822, 568.960 217.911, 563.396 221.194 C 559.731 223.356, 558.002 227.402, 559.922 229.323 C 562.878 232.281, 620.875 231.460, 622.022 228.443 C 627.998 212.724, 620.705 204.094, 610.872 215.250 C 606.245 220.500, 606.245 220.500, 595.122 220.838 L 584 221.177 584 207.088 L 584 193 590 193 C 595.862 193, 600 195.050, 600 197.955 C 600 199.984, 607.236 200.398, 608.660 198.450 C 610.683 195.684, 610.502 178.645, 608.429 176.571 C 605.584 173.727, 601.442 174.586, 599.133 178.500 C 597.107 181.932, 596.941 182, 590.534 182 L 584 182 584.015 171.250 C 584.037 155.937, 597.369 151.243, 607.950 162.821 C 614.725 170.234, 617.420 168.888, 617.787 157.908 L 618.073 149.317 601.377 148.658 C 583.374 147.948, 565.539 147.959, 562.797 148.680 M 632.583 150.234 C 630.597 153.265, 631.789 157.481, 634.912 158.472 C 641.506 160.565, 640.951 217.997, 634.306 221.182 C 622.858 226.669, 642.468 232.839, 660.750 229.502 C 665.854 228.571, 665.187 223.162, 659.712 221.080 C 654.243 219.001, 652.979 197.394, 658.297 196.885 C 664.332 196.307, 667.211 199.260, 674.929 213.943 C 683.291 229.852, 684.079 230.529, 694.066 230.392 C 707.114 230.213, 707.906 227.936, 698.467 217.742 C 682.590 200.593, 680.321 194.957, 686.495 188.005 C 706.999 164.919, 694.621 149.383, 654.859 148.300 C 634.218 147.737, 634.218 147.737, 632.583 150.234 M 730.601 149.058 C 718.707 150.887, 711 159.126, 711 170.010 C 711 179.046, 713.830 182.308, 732.207 194.459 C 745.447 203.213, 747.524 205.401, 748.491 211.618 C 750.671 225.635, 728.863 226.183, 720.773 212.315 C 714.988 202.399, 711 204.365, 711 217.131 C 711 227.825, 713.706 229.632, 731.216 230.632 C 771.375 232.925, 780.105 203.956, 745.433 183.459 C 736.241 178.025, 727.098 169.565, 726.882 166.293 C 726.452 159.786, 729.966 157, 738.601 157 C 745.643 157, 746.205 157.342, 752.293 165.334 C 755.338 169.332, 758.808 170.141, 761.094 167.386 C 763.061 165.017, 762.916 154.493, 760.889 152.463 C 757.782 149.351, 740.976 147.462, 730.601 149.058 M 303.750 156.563 C 303.337 156.987, 303 164.683, 303 173.667 L 303 190 308.250 189.978 C 321.771 189.921, 329.279 177.384, 324.040 163.606 C 322.355 159.174, 306.549 153.688, 303.750 156.563 M 446.171 156.873 C 444.488 157.940, 443.075 168.743, 443.033 180.859 L 443 190.219 450.449 189.842 C 474.187 188.644, 473.268 155.905, 449.500 156.021 C 448.400 156.026, 446.902 156.410, 446.171 156.873 M 514.955 158.618 C 514.218 160.554, 514.090 166.178, 514.564 175.750 L 515.269 190 520.384 189.998 C 536.928 189.993, 544.255 166.613, 530 159.315 C 522.317 155.382, 516.292 155.102, 514.955 158.618 M 658.178 156.819 C 656.113 158.206, 655.050 164.588, 655.024 175.750 L 655 186 661.750 185.985 C 682.883 185.939, 684.392 159.576, 663.437 156.507 C 661.272 156.190, 658.905 156.330, 658.178 156.819" stroke="none" fill="#153a83" fill-rule="evenodd"/></svg>