<svg xmlns="http://www.w3.org/2000/svg" width="827" height="302" viewBox="0 0 827 302" version="1.1"><path d="M 155.181 29.068 C 146.381 30.615, 136.202 35.959, 129.454 42.573 C 124.120 47.802, 117 56.860, 117 58.419 C 117 59.097, 114.181 62.585, 111.644 65.045 C 110.095 66.548, 107.670 66.899, 96.942 67.173 C 82.535 67.540, 79.641 68.623, 83.861 72.071 C 85.159 73.132, 87.017 74, 87.988 74 C 88.960 74, 90.358 74.727, 91.095 75.615 C 92.248 77.004, 92.061 77.551, 89.753 79.536 C 85.471 83.220, 72.724 85.188, 69.288 82.697 C 68.374 82.034, 68.585 81.128, 70.141 79.023 C 73.971 73.843, 70.077 69.656, 65.237 73.750 C 60.811 77.494, 59.177 78.732, 49.500 85.667 C 37.130 94.532, 35.467 96.288, 33.010 103.080 C 31.320 107.752, 31.105 110.433, 31.457 122.500 C 31.681 130.200, 32.603 141, 33.507 146.500 C 34.410 152, 35.346 158.075, 35.588 160 C 35.829 161.925, 36.697 166.875, 37.516 171 C 38.335 175.125, 39.254 180.750, 39.557 183.500 C 39.861 186.250, 40.515 190.075, 41.010 192 C 41.506 193.925, 42.382 198.650, 42.957 202.500 C 45.396 218.822, 50.633 236.341, 54.644 241.600 C 57.549 245.409, 64.061 250.288, 70.500 253.481 C 73.878 255.156, 76.755 255.488, 89 255.618 C 102.595 255.763, 104.017 255.967, 111.779 258.886 C 124.078 263.512, 131.781 263.087, 149 256.834 C 153.998 255.019, 155.204 254.946, 162.218 256.036 C 166.463 256.695, 171.638 256.911, 173.718 256.515 C 175.798 256.120, 178.614 255.590, 179.976 255.338 C 186.331 254.160, 197.659 246.112, 201.397 240.120 C 205.147 234.107, 212.903 204.897, 215.369 187.500 C 215.603 185.850, 216.503 180.675, 217.369 176 C 218.236 171.325, 219.147 165.673, 219.394 163.441 C 219.641 161.209, 220.308 156.709, 220.876 153.441 C 221.444 150.173, 222.153 144.575, 222.452 141 C 222.751 137.425, 223.236 133.375, 223.531 132 C 223.825 130.625, 224.156 125.091, 224.265 119.703 C 224.423 111.972, 224.152 109.710, 222.982 108.978 C 221.923 108.315, 221.312 108.542, 220.841 109.775 C 219.734 112.676, 217.213 125.796, 215.034 140 C 213.895 147.425, 212.326 157.100, 211.546 161.500 C 210.767 165.900, 209.843 171.525, 209.494 174 C 209.144 176.475, 208.253 181.650, 207.513 185.500 C 206.773 189.350, 205.919 194.405, 205.616 196.733 C 205.312 199.061, 204.397 203.561, 203.583 206.733 C 202.769 209.905, 201.866 213.625, 201.577 215 C 199.021 227.141, 194.547 237.314, 189.845 241.675 C 184.506 246.627, 170.963 251.588, 166.191 250.340 C 162.897 249.478, 162.500 245.881, 165.085 240.339 C 167.008 236.215, 167.377 233.580, 167.581 222.500 C 167.827 209.145, 167.472 204.821, 164.505 185 C 162.584 172.164, 161.791 170, 159.010 170 C 156.739 170, 155.427 175.117, 156.382 180.250 C 156.715 182.037, 157.237 186.200, 157.542 189.500 C 157.847 192.800, 158.592 198.650, 159.198 202.500 C 160.735 212.276, 160.717 227.667, 159.162 232.874 C 158.257 235.905, 155.959 239.168, 151.678 243.502 C 143.310 251.973, 136.987 254.397, 124.970 253.742 C 117.233 253.319, 115.844 252.915, 110.027 249.388 C 101.752 244.371, 95.456 235.501, 94.449 227.441 C 93.888 222.947, 95.451 202.697, 96.489 201.017 C 96.666 200.731, 97.191 196.898, 97.655 192.499 C 99.325 176.686, 98.489 152.597, 95.372 126.708 C 93.689 112.726, 93.692 111.971, 95.460 106.133 C 98.925 94.687, 102.528 93.209, 127.362 93.045 C 148.174 92.908, 149.740 93.259, 156.928 99.686 C 161.302 103.595, 161.354 103.718, 161.127 109.572 C 160.891 115.672, 160.649 118.134, 159.021 131 C 157.428 143.590, 156.800 153.794, 157.484 155.950 C 158.268 158.421, 161.531 158.665, 162.431 156.320 C 162.785 155.396, 164.031 150.558, 165.198 145.570 C 166.955 138.066, 167.348 133.001, 167.473 116.238 C 167.556 105.093, 168.047 95.554, 168.562 95.039 C 170.193 93.411, 181.200 91, 187 91 C 193.961 91, 202.756 93.241, 208.601 96.504 C 213.378 99.172, 215.520 99.586, 216.482 98.029 C 217.560 96.286, 214.131 91.243, 210.274 88.899 C 208.198 87.638, 206.275 86.321, 206 85.972 C 205.436 85.258, 192.114 76.023, 185.232 71.575 C 181.163 68.945, 179.299 68.518, 166.775 67.342 C 159.113 66.623, 151.647 65.461, 150.184 64.759 C 146.667 63.074, 146.303 60.503, 149.303 58.537 C 152.439 56.482, 165.013 53, 169.296 53 C 175.502 53, 176.251 51.599, 175.853 40.736 C 175.635 34.786, 175.021 30.618, 174.247 29.846 C 172.667 28.268, 162.167 27.840, 155.181 29.068 M 152.090 37.586 C 145.118 39.461, 136.564 45.326, 131.500 51.705 C 129.300 54.476, 125.292 59.535, 122.592 62.947 C 119.596 66.735, 114.728 71.146, 110.092 74.273 C 99.363 81.510, 95 85.403, 95 87.740 C 95 89.176, 98.120 89.441, 99.550 88.127 C 100.073 87.646, 104.222 86.521, 108.770 85.627 C 122.603 82.906, 142.322 83.799, 154.738 87.708 C 160.467 89.512, 161.765 89.174, 159.956 86.347 C 158.627 84.271, 148.687 76, 147.522 76 C 145.571 76, 136.925 68.550, 136.387 66.405 C 135.775 63.969, 137.635 60.075, 140.894 56.970 C 143.790 54.210, 149.875 49.843, 151.201 49.572 C 151.915 49.427, 153.625 48.843, 155 48.275 C 156.375 47.707, 159.525 46.985, 162 46.672 C 164.475 46.358, 166.580 46.079, 166.679 46.051 C 166.777 46.023, 167.564 45.293, 168.429 44.429 C 171.091 41.766, 170.352 39.045, 166.532 37.449 C 162.279 35.672, 159.098 35.702, 152.090 37.586 M 162.588 74.857 C 160.811 77.733, 167.823 82.573, 174.500 83.079 C 181.290 83.593, 188.136 82.907, 187.752 81.750 C 186.599 78.273, 164.259 72.154, 162.588 74.857 M 62 91.690 C 53.864 93.048, 49.297 95.118, 45.181 99.314 C 42.805 101.736, 40.327 105.271, 39.674 107.170 C 38.041 111.922, 38.344 126.321, 40.355 139.500 C 41.278 145.550, 42.258 152.075, 42.533 154 C 42.808 155.925, 43.472 159.975, 44.007 163 C 44.543 166.025, 45.904 174.125, 47.033 181 C 50.103 199.705, 51.994 209.253, 54.658 219.500 C 55.516 222.800, 56.306 225.950, 56.414 226.500 C 57.049 229.752, 61.289 237.314, 64.419 240.779 C 68.387 245.171, 77.880 249.611, 85.551 250.662 C 89.508 251.204, 90.031 251.027, 91.047 248.796 C 91.970 246.770, 91.686 244.927, 89.458 238.471 L 86.746 230.613 87.623 212.056 C 88.654 190.236, 88.627 143.973, 87.574 129 C 86.736 117.086, 86.735 113.205, 87.568 103.976 C 88.081 98.301, 87.900 97.220, 86.179 95.662 C 82.346 92.193, 70.570 90.259, 62 91.690" stroke="none" fill="#007f52" fill-rule="evenodd"/><path d="M 273.750 61.540 C 272.277 63.098, 273.043 66.547, 275.495 69.399 C 279.030 73.508, 279.935 77.662, 280.642 93 C 281.387 109.188, 279.821 125.672, 276.980 131.542 C 275.891 133.791, 275 136.116, 275 136.707 C 275 140.327, 295.548 142.948, 309.665 141.129 C 325.719 139.061, 334.206 134.264, 337.618 125.331 C 340.476 117.847, 338.112 109.952, 330.716 102.283 C 326.269 97.672, 326.256 98.244, 330.994 90.016 C 333.386 85.860, 333.692 77.225, 331.589 73.200 C 328.989 68.222, 324.424 64.838, 318.327 63.369 C 311.826 61.802, 274.934 60.288, 273.750 61.540 M 357.010 62 C 346.210 62.569, 344.918 63.737, 349.310 68.957 C 353.374 73.787, 354.471 80.621, 354.450 101 C 354.429 121.727, 353.235 129.379, 349.287 134.070 C 347.733 135.917, 347.082 137.482, 347.637 138.037 C 348.752 139.152, 402.414 139.805, 406.178 138.749 C 408.522 138.092, 408.937 137.342, 409.506 132.749 C 410.280 126.493, 408.871 122, 406.137 122 C 405.085 122, 401.829 123.647, 398.902 125.661 C 392.407 130.129, 387.616 131.647, 378.489 132.130 L 371.500 132.500 371.215 122.274 C 371.059 116.649, 371.310 110.574, 371.774 108.774 C 372.557 105.734, 372.948 105.478, 377.247 105.198 C 381.530 104.918, 382.163 105.199, 385.689 108.946 C 389.343 112.830, 393.158 114.171, 394.478 112.035 C 394.807 111.504, 395.080 106.514, 395.087 100.947 C 395.104 86.573, 393.428 85.054, 385.767 92.500 C 381.515 96.632, 380.723 97, 376.069 97 L 371 97 371 84 L 371 71 380.847 71 L 390.693 71 394.297 74.500 C 398.324 78.411, 400.890 78.885, 403.345 76.171 C 405.431 73.866, 405.533 66.676, 403.509 64.652 C 401.147 62.289, 377.314 60.930, 357.010 62 M 483 64.066 C 483 68.170, 484.639 71, 487.016 71 C 488.202 71, 489.183 71.882, 489.529 73.259 C 489.841 74.502, 489.962 87.473, 489.798 102.085 L 489.500 128.652 486.750 132.804 C 483.561 137.621, 483.402 138.557, 485.633 139.413 C 486.531 139.757, 499.078 140.326, 513.516 140.677 L 539.765 141.315 540.477 134.227 C 541.291 126.128, 540.559 121.428, 538.353 120.582 C 536.381 119.825, 534.874 120.750, 531.505 124.786 C 527.667 129.383, 524.642 130.680, 515.841 131.502 L 508.183 132.218 507.453 125.404 C 506.730 118.655, 507.476 89.949, 508.669 78.621 C 509.207 73.512, 509.661 72.530, 512.137 71.121 C 514.567 69.739, 514.988 68.873, 514.994 65.250 L 515 61 499 61 L 483 61 483 64.066 M 418.750 62.689 C 416.085 63.386, 416.649 66.043, 420.250 69.756 L 423.500 73.108 423.805 101.902 L 424.111 130.696 420.555 133.817 C 418.600 135.534, 417 137.370, 417 137.897 C 417 139.270, 424.383 139.855, 450.566 140.556 L 473.631 141.174 474.732 137.337 C 477.026 129.340, 477.267 125.057, 475.570 122.467 C 474.681 121.110, 473.465 120, 472.867 120 C 472.269 120, 469.353 122.218, 466.386 124.930 C 460.498 130.312, 454.204 132.416, 445.802 131.810 L 441.500 131.500 441.650 104.818 C 441.810 76.314, 442.401 72.050, 446.442 70.208 C 447.754 69.611, 449.146 68.116, 449.536 66.887 C 450.822 62.835, 447.986 61.988, 433.559 62.116 C 426.376 62.180, 419.712 62.438, 418.750 62.689 M 299.611 70.532 C 296.396 73.747, 296.319 86.042, 299.466 93.574 C 301.163 97.633, 304.439 98.122, 309.991 95.145 C 317.107 91.328, 319.852 81.002, 315.512 74.378 C 312.426 69.668, 302.803 67.340, 299.611 70.532 M 298.667 105.667 C 298.300 106.033, 298 112.783, 298 120.667 L 298 135 301.874 135 C 307.119 135, 313.885 132.484, 317.213 129.296 C 324.577 122.241, 322.558 110.220, 313.364 106.379 C 309.978 104.964, 299.860 104.474, 298.667 105.667 M 280.009 148.923 C 272.336 149.605, 271.576 150.886, 275.401 156.681 C 279.524 162.926, 280.474 169.573, 280.447 192 C 280.422 213.510, 280.293 214.267, 275.315 222.093 C 274.408 223.519, 273.952 225.432, 274.301 226.343 C 274.857 227.792, 276.988 228, 291.277 228 C 304.276 228, 308.015 227.693, 309.559 226.499 C 311.463 225.027, 311.455 224.961, 309.124 222.987 C 307.817 221.880, 305.567 220.693, 304.124 220.349 C 298.519 219.014, 295.449 213.579, 297.042 207.811 C 298.470 202.637, 301.895 200.052, 309.644 198.301 C 321.496 195.622, 329.294 190.768, 333.630 183.369 C 338.888 174.396, 338.472 165.248, 332.487 158.256 C 327.248 152.136, 321.231 150.053, 305.687 148.981 C 291.716 148.017, 290.233 148.013, 280.009 148.923 M 348.602 148.892 C 343.351 149.711, 341.857 152.154, 344.734 155.217 C 345.926 156.486, 347.605 160.219, 348.464 163.512 C 350.499 171.309, 351.528 199.021, 350.171 209.500 C 349.199 217.016, 348.905 217.695, 345.318 220.720 C 342.143 223.398, 341.684 224.236, 342.595 225.698 C 343.197 226.664, 344.772 227.757, 346.095 228.128 C 349.393 229.051, 400.235 229.149, 401.586 228.235 C 403.156 227.173, 405 221.257, 405 217.285 C 405 209.350, 400.554 207.729, 394.946 213.619 C 389.950 218.866, 386.500 220, 375.532 220 L 366 220 366 206 L 366 192 371.497 192 C 376.375 192, 377.431 192.394, 380.868 195.500 C 388.067 202.004, 391 199.543, 391 187 C 391 179.530, 389.781 175, 387.772 175 C 387.069 175, 384.327 176.541, 381.678 178.424 C 376.283 182.259, 369.771 183.885, 367.465 181.971 C 366.322 181.022, 366 178.023, 366 168.316 L 366 155.877 370.250 156.401 C 372.587 156.689, 376.624 157.192, 379.220 157.519 C 382.252 157.901, 385.731 159.345, 388.946 161.557 C 394.762 165.558, 398.238 165.927, 400.443 162.777 C 402.651 159.626, 402.372 155.528, 399.750 152.592 C 397.623 150.210, 396.659 150.015, 382.170 149.036 C 365.938 147.939, 355.011 147.892, 348.602 148.892 M 414.750 149.162 C 410.906 150.566, 411.164 153.892, 415.407 157.648 C 418.250 160.166, 418.954 161.644, 419.657 166.582 C 420.801 174.616, 420.497 213.890, 419.266 216.991 C 418.723 218.360, 416.572 220.385, 414.487 221.491 C 412.402 222.596, 410.652 223.950, 410.598 224.500 C 410.381 226.710, 417.961 227.889, 432.750 227.944 C 447.136 227.997, 448 227.891, 448 226.082 C 448 222.351, 446.767 220.986, 442.823 220.356 C 437.673 219.532, 436.383 217.321, 435.592 207.962 L 434.955 200.425 443.504 198.811 C 458.729 195.936, 471.976 187.884, 475.632 179.282 C 477.752 174.295, 477.341 166.170, 474.734 161.500 C 471.782 156.214, 464.601 152.694, 451.343 150.036 C 440.313 147.825, 419.756 147.334, 414.750 149.162 M 624.250 149.031 C 621.152 150.276, 621.232 154.930, 624.402 157.908 C 626.075 159.480, 627.188 162.190, 628.065 166.833 C 629.706 175.511, 629.690 197.095, 628.035 208.475 C 626.900 216.281, 626.342 217.812, 623.758 220.226 C 622.124 221.753, 621.011 223.586, 621.285 224.300 C 622.004 226.174, 628.435 228.002, 636.500 228.624 C 644.766 229.261, 650.887 228.134, 652.407 225.695 C 653.313 224.241, 652.863 223.390, 649.774 220.720 C 645.217 216.781, 644 213.652, 644 205.869 C 644 198.197, 645.155 196, 649.190 196 C 653.486 196, 658.322 201.388, 664 212.500 C 666.475 217.344, 670.118 223.038, 672.095 225.153 C 675.504 228.801, 676.006 229, 681.780 229 C 688.623 229, 693 227.713, 693 225.701 C 693 224.959, 689.550 220.336, 685.334 215.426 C 670.483 198.133, 669.431 194.779, 676.082 185.931 C 682.254 177.722, 684 173.737, 684 167.868 C 684 163.033, 683.690 162.360, 679.695 158.532 C 673.664 152.754, 664.538 150.175, 645.845 148.969 C 628.675 147.860, 627.152 147.865, 624.250 149.031 M 481.573 150.569 C 479.522 152.620, 480.885 155.263, 485.545 158.271 L 488.998 160.500 488.749 189.867 L 488.500 219.233 484.083 220.867 C 478.308 223.002, 477.913 224.628, 482.662 226.716 C 487.719 228.939, 510.809 229.213, 515.796 227.110 C 520.416 225.161, 519.579 222.861, 513.518 220.849 C 510.782 219.941, 508.013 218.366, 507.364 217.349 C 506.716 216.332, 505.873 212.243, 505.492 208.263 C 504.697 199.959, 504.759 199.896, 514.835 198.596 C 527.624 196.948, 537.730 190.339, 542.560 180.466 C 544.832 175.822, 545.171 174.030, 544.820 168.512 C 544.350 161.133, 542.625 158.137, 536.249 153.626 C 531.227 150.073, 523.721 149.131, 499.821 149.054 C 485.951 149.009, 482.879 149.264, 481.573 150.569 M 552.061 150.886 C 551.265 152.374, 551.677 153.634, 554.017 156.865 C 559.004 163.749, 560.797 178.655, 559.023 198.485 C 557.693 213.349, 556.582 217.573, 552.899 221.768 C 549.485 225.656, 549.342 226.577, 551.934 227.965 C 554.121 229.135, 601.028 229.319, 607.500 228.182 C 611.394 227.499, 611.536 227.330, 612.845 221.825 C 613.974 217.080, 613.973 215.714, 612.838 213.335 C 610.569 208.580, 607.085 209.036, 600.565 214.941 L 594.979 220 584.489 220 L 574 220 574 205.884 L 574 191.767 580.520 192.182 C 586.325 192.552, 587.360 192.948, 589.963 195.799 C 593.199 199.342, 594.677 199.688, 597.559 197.580 C 599.238 196.353, 599.494 194.947, 599.455 187.180 C 599.407 177.523, 598.393 175, 594.562 175 C 593.312 175, 591.035 176.505, 589.269 178.500 C 586.368 181.777, 585.783 182, 580.085 182 L 574 182 574.006 175.250 C 574.009 171.537, 574.472 166.841, 575.035 164.814 C 576.391 159.931, 581.121 156, 585.642 156 C 590.057 156, 592.344 157.209, 598.207 162.640 C 600.796 165.038, 603.368 167, 603.922 167 C 605.837 167, 607 163.107, 607 156.697 L 607 150.262 603.250 149.642 C 601.188 149.301, 589.053 149.017, 576.285 149.011 C 554.556 149.001, 553.006 149.121, 552.061 150.886 M 716.500 149.870 C 709.483 151.731, 703.126 156.856, 701.064 162.315 C 700.479 163.863, 700 167.471, 700 170.333 C 700 177.438, 702.714 181.114, 713.639 188.809 C 718.513 192.241, 724.870 196.725, 727.766 198.774 C 733.064 202.522, 737 208.475, 737 212.739 C 737 215.857, 732.494 220.651, 728.884 221.373 C 721.789 222.792, 713.473 218.455, 707.979 210.470 C 704.835 205.899, 701.721 204.679, 700.607 207.582 C 699.812 209.652, 699.823 221.375, 700.621 223.455 C 701.879 226.732, 707.109 228.269, 718.753 228.783 C 727.601 229.173, 731.464 228.901, 736.534 227.528 C 760.963 220.916, 759.522 200.106, 733.489 183.561 C 725.297 178.355, 717.249 171.382, 715.478 167.957 C 712.814 162.806, 716.375 158.004, 723.885 156.620 C 729.709 155.546, 734.255 157.488, 738.946 163.051 C 742.336 167.072, 743.744 168.049, 745.791 167.806 C 748.965 167.429, 750.332 163.463, 749.456 157.168 C 748.924 153.350, 748.417 152.653, 745.176 151.287 C 741.034 149.541, 721.398 148.571, 716.500 149.870 M 299.250 156.141 C 298.353 157.045, 298 161.998, 298 173.700 L 298 190 301.250 189.994 C 313.799 189.973, 322.401 180.406, 320.453 168.637 C 319.448 162.571, 318.560 161.416, 312.756 158.629 C 306.078 155.422, 300.908 154.470, 299.250 156.141 M 438.041 157.450 C 436.655 159.121, 434.357 185.882, 435.373 188.529 C 435.949 190.031, 436.899 190.191, 442.047 189.653 C 453.543 188.451, 460.167 182.181, 460.167 172.500 C 460.167 166.143, 456.625 160.436, 450.800 157.405 C 447.237 155.551, 439.595 155.579, 438.041 157.450 M 507.013 157.485 C 506.145 158.530, 505.819 163.310, 505.911 173.615 C 505.984 181.670, 506.285 188.652, 506.580 189.130 C 507.503 190.623, 514.314 190.041, 518.579 188.104 C 527.831 183.902, 531.848 171.522, 526.572 163.470 C 522.984 157.994, 509.910 153.994, 507.013 157.485 M 645.837 158.250 C 645.119 159.560, 644.428 165.827, 644.184 173.250 L 643.764 186 649.132 185.978 C 663.472 185.919, 671.741 174.407, 665.129 163.709 C 660.940 156.930, 648.491 153.408, 645.837 158.250" stroke="none" fill="#114b78" fill-rule="evenodd"/></svg>