<svg xmlns="http://www.w3.org/2000/svg" width="456" height="451" viewBox="0 0 456 451" version="1.1"><path d="M 132 253.439 C 132 254.403, 132.954 256.530, 134.119 258.167 C 138.344 264.101, 139.059 289.761, 135.335 301.798 C 134.059 305.922, 133.962 307.362, 134.897 308.298 C 135.720 309.121, 140.574 309.500, 150.299 309.500 C 163.654 309.500, 164.845 309.338, 170.290 306.787 C 175.217 304.479, 176.378 303.400, 178.081 299.549 C 180.602 293.851, 179.560 289.057, 174.481 282.977 C 172.566 280.686, 171.002 278.516, 171.004 278.155 C 171.006 277.795, 171.906 276.027, 173.004 274.226 C 175.923 269.438, 175.716 262.004, 172.559 258.253 C 169.132 254.180, 164.452 253.092, 147.130 252.343 C 133.132 251.737, 132 251.819, 132 253.439 M 193 252.695 C 189.975 252.926, 187.116 253.495, 186.648 253.960 C 186.179 254.424, 186.785 256.143, 187.995 257.779 C 192.535 263.920, 193.133 293.311, 188.913 302.905 C 187.848 305.327, 187.139 307.472, 187.339 307.672 C 187.539 307.872, 196.207 308.303, 206.601 308.630 C 230.004 309.367, 231 309.097, 231 302.025 C 231 295.917, 230.194 295.745, 222.338 300.178 C 217.654 302.822, 215.596 303.368, 210.103 303.428 L 203.500 303.500 203.210 296.421 C 202.822 286.979, 203.991 284, 208.081 284 C 209.977 284, 212.405 285.005, 214.239 286.548 C 218.697 290.299, 220.436 289.491, 220.815 283.494 C 221.201 277.375, 220.276 272, 218.837 272 C 218.247 272, 216.226 273.350, 214.347 275 C 211.780 277.254, 209.945 278, 206.965 278 L 203 278 203 268.500 L 203 259 210.606 259 C 217.259 259, 218.583 259.313, 221.182 261.500 C 222.816 262.875, 224.514 264, 224.954 264 C 226.698 264, 228.120 260.962, 227.818 257.881 C 227.570 255.342, 226.925 254.479, 224.866 253.933 C 221.351 253.002, 199.906 252.168, 193 252.695 M 286 255.094 C 286 257.352, 286.543 258.329, 288.011 258.713 C 291.001 259.495, 291.339 262.475, 290.752 282.890 C 290.303 298.484, 289.918 302.016, 288.377 304.685 C 287.365 306.437, 286.792 308.125, 287.102 308.435 C 287.412 308.746, 296.516 309.296, 307.333 309.658 L 327 310.317 327 303.242 C 327 294.743, 325.905 293.902, 320.968 298.611 C 318.401 301.059, 315.890 302.290, 311.772 303.117 C 302.279 305.023, 302.685 305.997, 303.179 282.505 C 303.582 263.355, 303.746 261.899, 305.731 259.772 C 306.897 258.522, 308.159 256.262, 308.534 254.750 L 309.217 252 297.608 252 L 286 252 286 255.094 M 237.572 253.883 C 237.250 254.404, 238.062 256.109, 239.376 257.670 C 241.703 260.436, 241.775 261.069, 242.133 281.843 L 242.500 303.175 240.053 305.157 C 238.157 306.694, 237.908 307.325, 238.946 307.967 C 241.193 309.356, 276.977 310.423, 278.260 309.140 C 279.832 307.568, 280.512 296.434, 279.090 295.556 C 278.468 295.171, 276.506 296.083, 274.730 297.583 C 270.072 301.515, 264.144 303.953, 259.179 303.978 L 254.858 304 255.179 282.508 L 255.500 261.015 258.303 258.418 C 259.845 256.989, 260.934 255.298, 260.722 254.660 C 260.243 253.217, 238.436 252.485, 237.572 253.883 M 151.619 258.270 C 149.162 260.092, 148.394 268.163, 150.169 273.500 C 151.240 276.718, 152.038 277.562, 154.252 277.817 C 160.023 278.481, 165.993 270.806, 164.460 264.696 C 163.090 259.237, 155.463 255.421, 151.619 258.270 M 150 295 L 150 306 153.184 306 C 158.307 306, 164.580 302.404, 166.494 298.371 C 168.568 294.001, 167.860 290.707, 164.026 286.872 C 161.550 284.396, 160.385 284, 155.577 284 L 150 284 150 295 M 58.750 316.689 C 56.472 317.285, 56.541 318.109, 59.250 322.693 C 61.321 326.198, 61.526 327.947, 61.829 344.732 C 62.141 361.997, 62.039 363.203, 59.905 367.475 C 58.666 369.956, 57.962 372.295, 58.340 372.673 C 59.419 373.752, 75.087 374.240, 79.285 373.325 C 84.126 372.270, 84.373 370.931, 80.099 368.913 C 75.848 366.906, 74 364.436, 74 360.763 C 74 356.572, 77.622 353.613, 85.792 351.132 C 93.389 348.824, 99.007 344.821, 101.551 339.901 C 103.697 335.752, 103.390 328.366, 100.903 324.344 C 98.269 320.081, 94.964 318.362, 86.883 317.051 C 80.602 316.032, 62.173 315.795, 58.750 316.689 M 109.782 316.984 C 108.175 317.994, 108.198 318.318, 110.128 322.021 C 112.928 327.392, 114.278 339.106, 113.734 353.298 C 113.309 364.388, 113.124 365.261, 110.641 367.853 C 107.616 371.010, 107.326 372.527, 109.582 373.393 C 110.452 373.727, 120.138 374, 131.107 374 L 151.050 374 152.025 371.435 C 153.242 368.233, 153.256 363.954, 152.056 362.057 C 151.018 360.416, 149.064 361.172, 143.102 365.521 C 140.166 367.663, 138.631 368, 131.817 368 L 123.930 368 124.215 357.750 L 124.500 347.500 127.845 347.180 C 130.184 346.955, 132.304 347.632, 134.898 349.430 C 139.464 352.593, 141.583 352.684, 142.370 349.750 C 143.286 346.331, 143.116 340.435, 142.018 337.547 L 141.035 334.963 135.687 337.981 C 130.505 340.906, 126.589 341.793, 125.672 340.250 C 125.427 339.837, 124.897 335.273, 124.496 330.108 L 123.765 320.715 130.133 321.424 C 133.986 321.853, 138.150 323.094, 140.678 324.567 C 145.774 327.535, 148.580 327.654, 150.020 324.962 C 151.416 322.355, 150.447 319.309, 147.765 317.874 C 144.874 316.327, 112.053 315.558, 109.782 316.984 M 159.667 316.667 C 158.306 318.028, 159.078 320.472, 161.750 323.260 L 164.500 326.130 164.500 346.136 L 164.500 366.142 161.066 368.945 C 158 371.449, 157.839 371.810, 159.566 372.319 C 163.013 373.336, 179.626 374.254, 181.844 373.549 C 185.095 372.518, 184.586 369.367, 181.054 368.661 C 177.448 367.940, 176.231 365.815, 175.407 358.803 L 174.771 353.396 180.932 352.250 C 198.860 348.916, 208.534 338.883, 204.799 327.498 C 203.197 322.614, 198.191 319.571, 188.316 317.479 C 181.426 316.019, 160.896 315.437, 159.667 316.667 M 211.250 316.706 C 208.133 317.306, 208.439 319.525, 212 322.158 L 215 324.376 215 345.987 L 215 367.598 211.500 368.864 C 209.575 369.560, 208 370.529, 208 371.018 C 208 373.586, 227.840 375.152, 233.435 373.025 C 236.996 371.671, 236.652 370.598, 231.979 368.490 C 229.334 367.298, 227.793 365.876, 227.479 364.338 C 227.215 363.052, 226.757 360.837, 226.460 359.415 C 225.487 354.764, 226.706 353.166, 231.800 352.411 C 246.449 350.242, 255 342.566, 255 331.587 C 255 321.759, 250.686 318.298, 236.757 316.950 C 227.332 316.038, 215.314 315.923, 211.250 316.706 M 263.250 316.706 C 260.486 317.238, 260.462 317.907, 263.035 322.843 C 268.396 333.128, 267.720 361.279, 261.920 369.271 C 260.813 370.796, 260.181 372.483, 260.513 373.021 C 261.462 374.556, 301.237 374.303, 303.185 372.750 C 306.545 370.071, 306.100 361, 302.609 361 C 301.882 361, 299.225 362.575, 296.704 364.500 C 292.399 367.787, 291.660 368, 284.560 368 L 277 368 277 357.370 L 277 346.740 281.562 347.254 C 284.338 347.567, 287.044 348.632, 288.473 349.975 C 289.765 351.188, 291.649 352.023, 292.661 351.830 C 294.206 351.535, 294.546 350.346, 294.791 344.396 C 295.016 338.908, 294.726 337.018, 293.505 336.004 C 292.168 334.895, 291.505 335.100, 289.159 337.348 C 286.967 339.448, 285.413 340, 281.695 340 L 277 340 277 333.423 C 277 327.487, 277.285 326.561, 279.923 323.923 C 284.080 319.767, 287.627 320.045, 293.623 325 C 296.285 327.200, 298.757 329, 299.115 329 C 300.060 329, 300.971 325.058, 300.986 320.897 L 301 317.293 293.349 316.647 C 285.164 315.955, 266.963 315.991, 263.250 316.706 M 312.637 317.504 C 312.320 318.331, 313.130 321.020, 314.438 323.480 C 317.562 329.354, 318.578 341.378, 317.100 354.965 C 316.286 362.451, 315.451 365.882, 313.993 367.736 C 312.897 369.129, 312 370.638, 312 371.088 C 312 372.425, 319.085 373.988, 325.168 373.994 C 334.612 374.004, 335.956 372.651, 331.314 367.806 C 329.165 365.563, 328.541 363.801, 328.194 358.999 C 327.235 345.747, 334.601 347.387, 342.945 362.283 C 348.646 372.460, 350.412 374.002, 356.339 373.985 C 364.827 373.960, 364.896 373.309, 357.411 363.908 C 347.007 350.841, 346.773 349.550, 353.142 340.294 C 357.450 334.032, 358.125 327.846, 354.885 324.322 C 353.573 322.896, 350.700 320.924, 348.500 319.941 C 340.259 316.259, 313.805 314.461, 312.637 317.504 M 375.235 319.945 C 372.999 321.564, 370.940 323.702, 370.660 324.695 C 367.619 335.451, 369.030 337.950, 384.108 348.515 C 393.029 354.766, 396 358.169, 396 362.135 C 396 366.438, 392.849 369, 387.557 369 C 383.558 369, 382.520 368.450, 377.173 363.500 C 373.906 360.475, 371.005 358, 370.728 358 C 369.715 358, 368.927 365.092, 369.563 368.483 C 370.115 371.429, 370.777 372.121, 373.858 372.977 C 375.861 373.534, 381.325 373.987, 386 373.985 C 392.851 373.981, 395.493 373.518, 399.618 371.597 C 405.882 368.681, 408 365.840, 408 360.355 C 408 354.577, 403.740 349.212, 392.474 340.798 C 387.538 337.111, 382.712 333.124, 381.750 331.937 C 377.686 326.924, 381.179 321.500, 388.472 321.500 C 392.108 321.500, 393.423 322.135, 397.425 325.824 C 401.315 329.409, 402.371 329.937, 403.608 328.911 C 404.592 328.094, 404.997 326.292, 404.800 323.610 C 404.388 318.031, 402.058 317.033, 389.400 317.015 C 379.796 317.001, 379.101 317.145, 375.235 319.945 M 76.175 321.225 C 75.406 321.994, 75 326.525, 75 334.330 L 75 346.260 79.614 345.740 C 85.528 345.073, 89.129 342.369, 90.944 337.232 C 93.155 330.975, 91.596 326.118, 86.500 323.388 C 81.172 320.534, 77.612 319.788, 76.175 321.225 M 176.987 323.535 C 176.457 324.929, 175.905 330.441, 175.762 335.785 L 175.500 345.500 179.180 345.806 C 186.567 346.421, 194 340.249, 194 333.500 C 194 327.088, 188.078 321, 181.840 321 C 178.597 321, 177.790 321.421, 176.987 323.535 M 227.477 323.250 C 227.168 324.488, 227.047 330, 227.208 335.500 L 227.500 345.500 230.686 345.809 C 239.711 346.683, 246.747 336.124, 242.846 327.562 C 241.539 324.693, 234.705 321, 230.703 321 C 228.772 321, 227.883 321.620, 227.477 323.250 M 329.399 322.163 C 329.004 322.803, 328.464 327.814, 328.200 333.299 L 327.720 343.271 333.382 342.801 C 342.660 342.032, 347.592 335.745, 344.577 328.530 C 343.776 326.613, 341.631 324.136, 339.810 323.026 C 336.170 320.806, 330.527 320.339, 329.399 322.163" stroke="none" fill="#114b78" fill-rule="evenodd"/><path d="M 243.407 51.976 C 233.350 54.104, 223.229 61.428, 216.651 71.339 C 214.711 74.261, 212.408 77.247, 211.533 77.973 C 210.609 78.740, 206.004 79.548, 200.551 79.900 C 195.386 80.234, 190.787 80.881, 190.330 81.339 C 189.537 82.135, 191.665 84.257, 195.596 86.586 C 197.307 87.601, 197.253 87.788, 194.792 89.401 C 193.342 90.351, 189.645 91.388, 186.577 91.704 C 180.649 92.316, 179.923 91.698, 182.230 88.003 C 183.237 86.391, 183.177 85.748, 181.902 84.474 C 180.491 83.062, 179.266 83.705, 168.922 91.288 C 152.990 102.968, 152.778 103.393, 153.356 122.500 C 153.788 136.790, 154.606 142.727, 161.441 181.171 C 163.700 193.875, 167.649 205.531, 170.982 209.327 C 176.508 215.621, 182.096 217.721, 195.485 218.538 C 202.775 218.983, 209.593 220, 212.891 221.135 C 220.144 223.630, 226.398 223.485, 235.450 220.610 C 241.750 218.609, 244.333 218.304, 251.302 218.739 C 258.334 219.178, 260.367 218.931, 264.393 217.150 C 275.491 212.241, 278.783 207.524, 283.498 189.775 C 288.650 170.379, 295.668 120.930, 294.291 113.735 C 293.555 109.892, 292.182 109.390, 290.989 112.529 C 290.435 113.985, 287.741 128.750, 285.001 145.339 C 278.759 183.139, 276.453 193.521, 272.571 201.310 C 270.003 206.461, 268.646 207.954, 264.492 210.201 C 258.653 213.360, 252.304 214.704, 250.717 213.117 C 249.929 212.329, 250.095 210.540, 251.313 206.675 C 253.493 199.759, 253.517 185.415, 251.372 170.682 C 249.497 157.797, 248.636 155, 246.544 155 C 243.976 155, 243.680 159.668, 245.380 173.333 C 248.180 195.849, 247.651 200.843, 241.753 207.543 C 236.004 214.074, 231.655 216, 222.653 216 C 215.933 216, 214.766 215.691, 210.390 212.750 C 201.282 206.630, 198.626 200.091, 200.133 187.500 C 202.045 171.518, 202.264 143.326, 200.592 128.171 C 198.809 112.012, 199.442 106.814, 203.676 102.832 C 206.032 100.616, 206.959 100.486, 222.328 100.217 C 237.010 99.960, 238.794 100.116, 241.696 101.919 C 247.413 105.471, 247.979 107.268, 246.765 118 C 246.175 123.225, 245.648 131.765, 245.596 136.978 C 245.513 145.134, 245.736 146.502, 247.195 146.790 C 250.384 147.421, 252.994 133.437, 253.015 115.614 C 253.024 108.401, 253.396 101.925, 253.842 101.222 C 254.288 100.518, 257.465 99.420, 260.902 98.781 C 268.051 97.452, 274.689 98.441, 282.507 102.003 C 285.888 103.544, 287.548 103.852, 288.318 103.082 C 290.199 101.201, 285.931 96.962, 273.908 88.775 L 262.500 81.006 252.638 79.935 C 241.613 78.739, 237.649 77.586, 238.230 75.744 C 238.733 74.151, 250.496 70.082, 254.731 70.035 C 257.342 70.007, 258.084 69.513, 258.599 67.464 C 259.295 64.688, 258.709 53.376, 257.823 52.490 C 256.777 51.443, 247.490 51.112, 243.407 51.976 M 240.500 59.236 C 234.571 61.367, 230.048 65.062, 222.920 73.595 C 218.935 78.367, 213.632 83.672, 211.136 85.385 C 205.141 89.500, 199.371 94.704, 200.050 95.383 C 200.349 95.682, 202.822 95.193, 205.547 94.297 C 212.362 92.056, 233.343 92.003, 241.250 94.207 C 244.412 95.089, 247 95.413, 247 94.928 C 247 94.443, 244.637 92.264, 241.750 90.084 C 230.943 81.929, 228.916 79.857, 229.542 77.613 C 229.866 76.451, 232.096 73.655, 234.498 71.399 C 238.565 67.579, 241.188 66.438, 250.293 64.527 C 251.829 64.204, 253.364 63.214, 253.705 62.326 C 255.122 58.634, 247.280 56.799, 240.500 59.236 M 249.549 87.266 C 250.655 90.149, 259.642 92.516, 264.454 91.193 L 267.408 90.381 263.008 88.620 C 260.588 87.652, 256.436 86.602, 253.781 86.288 C 249.692 85.803, 249.045 85.953, 249.549 87.266 M 171.721 99.361 C 166.493 100.832, 162.651 103.883, 160.276 108.450 C 157.903 113.014, 159.192 130.641, 163.920 158.260 C 169.112 188.592, 171.487 198.018, 175.401 203.822 C 178.840 208.920, 185.314 212.830, 191.745 213.693 C 196.692 214.356, 197.539 212.745, 195.388 206.768 C 194.093 203.170, 193.825 194.577, 193.676 152.013 L 193.500 101.527 190.646 100.159 C 186.538 98.190, 177.271 97.799, 171.721 99.361 M 285.150 254.250 C 285.287 257.229, 285.334 257.274, 285.713 254.781 L 286.127 252.062 297.813 251.746 L 309.500 251.430 297.250 251.215 L 285 251 285.150 254.250 M 290.407 277 C 290.407 286.075, 290.559 289.788, 290.744 285.250 C 290.929 280.712, 290.929 273.288, 290.744 268.750 C 290.559 264.212, 290.407 267.925, 290.407 277 M 255.392 277 C 255.392 284.425, 255.549 287.462, 255.742 283.750 C 255.934 280.038, 255.934 273.962, 255.742 270.250 C 255.549 266.538, 255.392 269.575, 255.392 277 M 213.500 345.595 C 213.500 357.918, 213.838 368, 214.250 368 C 214.662 368, 215 358.127, 215 346.059 C 215 333.991, 214.662 323.909, 214.250 323.655 C 213.838 323.400, 213.500 333.273, 213.500 345.595 M 164.405 346.500 C 164.406 355.300, 164.559 358.766, 164.745 354.203 C 164.930 349.639, 164.929 342.439, 164.742 338.203 C 164.555 333.966, 164.404 337.700, 164.405 346.500 M 124.429 348.325 C 124.149 349.054, 124.070 353.891, 124.253 359.075 L 124.585 368.500 124.792 358.310 L 125 348.121 128.750 347.728 L 132.500 347.336 128.719 347.168 C 126.371 347.064, 124.744 347.502, 124.429 348.325 M 131 374 L 110.500 374.563 130.691 374.781 C 143.314 374.918, 151.114 374.625, 151.500 374 C 151.840 373.450, 151.979 373.098, 151.809 373.219 C 151.639 373.339, 142.275 373.691, 131 374 M 271.803 374.746 C 277.470 374.925, 286.470 374.924, 291.803 374.745 C 297.136 374.565, 292.500 374.419, 281.500 374.420 C 270.500 374.421, 266.136 374.568, 271.803 374.746" stroke="none" fill="#007f52" fill-rule="evenodd"/></svg>