<svg xmlns="http://www.w3.org/2000/svg" width="487" height="193" viewBox="0 0 487 193" version="1.1"><path d="" stroke="none" fill="#000000" fill-rule="evenodd"/><path d="M 112.500 19.525 C 111.950 19.727, 109.612 20.377, 107.304 20.970 C 102.011 22.330, 93.049 30.348, 90.497 36.007 C 88.094 41.335, 84.482 42.957, 77.982 41.626 C 73.157 40.637, 70 41.168, 70 42.969 C 70 43.536, 71.088 44, 72.418 44 C 77.598 44, 78.154 44.913, 75.217 48.594 C 72.647 51.815, 72.161 52, 66.250 52 C 59.645 52, 58.125 50.652, 62 48.232 C 64.486 46.679, 64.592 45, 62.203 45 C 61.215 45, 58.648 46.800, 56.500 49 C 54.352 51.200, 52.012 53, 51.300 53 C 50.588 53, 48.231 54.604, 46.061 56.564 C 41.394 60.781, 38.478 67.568, 39.328 72.241 C 40.806 80.367, 45.212 106.083, 46.054 111.500 C 50.480 139.964, 52.999 145.436, 63.833 150.125 C 68.804 152.276, 72.334 152.477, 76.944 150.870 C 79.740 149.895, 80.830 150.064, 84.844 152.095 C 91.495 155.461, 99.892 155.378, 106.633 151.880 C 111.111 149.557, 111.956 149.411, 114.092 150.595 C 119.132 153.388, 128.718 151.269, 134.284 146.131 C 138.293 142.430, 141.773 134.565, 142.970 126.500 C 144.082 119.002, 146.886 102.455, 150.126 84.260 C 152.205 72.587, 152.289 66.913, 150.392 66.291 C 149.710 66.068, 149.050 68.153, 148.676 71.714 C 148.341 74.896, 145.861 90.384, 143.165 106.130 C 137.919 136.764, 136.670 140.650, 130.632 145.114 C 127.278 147.593, 116.661 149.061, 114.890 147.290 C 114.275 146.675, 114.838 144.738, 116.452 141.915 C 119.252 137.016, 119.750 130.601, 117.973 122.299 C 117.408 119.660, 116.620 113.900, 116.223 109.500 C 115.503 101.535, 113.815 98.786, 113.152 104.500 C 112.960 106.150, 113.572 113.421, 114.510 120.658 C 116.398 135.221, 115.954 138.525, 111.372 143.970 C 102.173 154.903, 85.554 153.626, 78.411 141.439 C 75.226 136.004, 75.081 131.949, 77.520 116.500 C 79.381 104.708, 79.173 94.958, 76.678 77 C 75.152 66.021, 75.732 62.808, 80.011 58.524 C 82.988 55.545, 83.207 55.496, 94.766 55.209 C 108.130 54.877, 111.671 56.145, 114.614 62.317 C 116.066 65.362, 116.065 66.778, 114.601 78.782 C 112.673 94.597, 112.684 94, 114.316 94 C 115.226 94, 116.151 90.528, 117.316 82.734 C 119.347 69.148, 119.388 64.303, 117.500 61 C 116.714 59.625, 116.055 58.235, 116.035 57.911 C 115.939 56.314, 121.935 55.001, 129.297 55.005 C 136.260 55.009, 138.105 55.383, 141.500 57.474 C 146.178 60.355, 147 60.515, 147 58.542 C 147 57.740, 144.865 55.833, 142.256 54.304 C 139.646 52.775, 135.776 49.840, 133.655 47.781 C 128.455 42.735, 120.691 40.259, 114.221 41.583 C 109.211 42.609, 103.680 41.475, 104.310 39.551 C 105.019 37.386, 111.309 34.080, 115.823 33.500 C 118.395 33.170, 121.175 32.538, 122 32.097 C 123.887 31.088, 124.583 22.407, 122.936 20.422 C 121.864 19.132, 115.145 18.554, 112.500 19.525 M 112 22.919 C 103.444 24.704, 96.513 30.385, 92.858 38.608 C 91.405 41.876, 90.146 43.054, 86.700 44.370 C 81.520 46.349, 75.100 52.500, 76.625 54.025 C 77.320 54.720, 78.811 54.559, 81.291 53.523 C 86.316 51.423, 106.342 51.408, 110.354 53.501 C 113.356 55.066, 115 54.746, 115 52.596 C 115 50.833, 111.710 48.007, 106.171 45.012 C 100.726 42.068, 99.931 39.772, 103.159 36.316 C 106.446 32.797, 110.753 30.696, 116 30.052 C 120.371 29.516, 120.500 29.400, 120.500 26 C 120.500 22.975, 120.161 22.479, 118 22.344 C 116.625 22.259, 113.925 22.517, 112 22.919 M 115.187 44.863 C 114.170 45.508, 114.472 46.408, 116.526 48.848 C 118.993 51.780, 119.624 52, 125.589 52 C 129.115 52, 132 51.620, 132 51.155 C 132 49.453, 128.068 46.825, 123.436 45.431 C 117.969 43.785, 116.993 43.718, 115.187 44.863 M 50.500 57.282 C 43.063 61.462, 41.717 67.433, 44.560 83.619 C 45.418 88.504, 47.685 101.892, 49.597 113.370 C 53.699 137.997, 55.600 142.641, 63.200 146.595 C 66.339 148.228, 77 148.510, 77 146.960 C 77 146.388, 76.165 144.251, 75.144 142.210 C 72.276 136.476, 71.990 133.040, 73.535 122.889 C 75.389 110.706, 75.383 91.279, 73.520 77.155 C 72.171 66.921, 72.185 65.578, 73.686 61.827 C 75.248 57.923, 75.237 57.647, 73.474 56.358 C 72.248 55.461, 68.713 55.006, 63.059 55.016 C 56.057 55.030, 53.772 55.442, 50.500 57.282" stroke="none" fill="#275d76" fill-rule="evenodd"/><path d="M 108.139 19.147 C 100.932 21.222, 90.974 29.907, 88.864 35.961 C 87.535 39.773, 84.452 40.886, 76.896 40.280 C 71.887 39.878, 70.162 40.100, 69.187 41.275 C 68.166 42.505, 68.231 43.088, 69.537 44.394 C 70.420 45.277, 72.021 46, 73.094 46 C 74.964 46, 74.975 46.109, 73.351 48.588 C 71.810 50.938, 71.247 51.114, 67.200 50.507 C 64.749 50.140, 62.127 49.602, 61.372 49.313 C 60.560 49.001, 60 49.442, 60 50.393 C 60 51.698, 61.176 52, 66.250 52 C 72.161 52, 72.647 51.815, 75.217 48.594 C 78.154 44.913, 77.598 44, 72.418 44 C 71.088 44, 70 43.536, 70 42.969 C 70 41.168, 73.157 40.637, 77.982 41.626 C 84.482 42.957, 88.094 41.335, 90.497 36.007 C 92.855 30.779, 101.929 22.410, 106.792 20.980 C 108.831 20.381, 112.988 19.636, 116.029 19.326 C 122.901 18.625, 124.244 19.876, 123.808 26.570 C 123.459 31.924, 122.654 32.623, 115.823 33.500 C 111.309 34.080, 105.019 37.386, 104.310 39.551 C 103.680 41.475, 109.211 42.609, 114.221 41.583 C 120.691 40.259, 128.455 42.735, 133.655 47.781 C 135.776 49.840, 139.646 52.775, 142.256 54.304 C 144.865 55.833, 147 57.740, 147 58.542 C 147 60.515, 146.178 60.355, 141.500 57.474 C 138.105 55.383, 136.260 55.009, 129.297 55.005 C 121.935 55.001, 115.939 56.314, 116.035 57.911 C 116.055 58.235, 116.714 59.625, 117.500 61 C 119.388 64.303, 119.347 69.148, 117.316 82.734 C 116.151 90.528, 115.226 94, 114.316 94 C 112.684 94, 112.673 94.597, 114.601 78.782 C 116.065 66.778, 116.066 65.362, 114.614 62.317 C 111.671 56.145, 108.130 54.877, 94.766 55.209 C 83.207 55.496, 82.988 55.545, 80.011 58.524 C 75.732 62.808, 75.152 66.021, 76.678 77 C 79.173 94.958, 79.381 104.708, 77.520 116.500 C 75.081 131.949, 75.226 136.004, 78.411 141.439 C 85.554 153.626, 102.173 154.903, 111.372 143.970 C 115.954 138.525, 116.398 135.221, 114.510 120.658 C 112.756 107.132, 112.753 102.101, 114.500 101.719 C 115.057 101.597, 115.820 105.046, 116.223 109.500 C 116.620 113.900, 117.408 119.660, 117.973 122.299 C 119.750 130.601, 119.252 137.016, 116.452 141.915 C 114.838 144.738, 114.275 146.675, 114.890 147.290 C 116.661 149.061, 127.278 147.593, 130.632 145.114 C 136.670 140.650, 137.919 136.764, 143.165 106.130 C 145.861 90.384, 148.341 74.896, 148.676 71.714 C 149.050 68.153, 149.710 66.068, 150.392 66.291 C 152.289 66.913, 152.205 72.587, 150.126 84.260 C 146.886 102.455, 144.082 119.002, 142.970 126.500 C 141.773 134.565, 138.293 142.430, 134.284 146.131 C 128.718 151.269, 119.132 153.388, 114.092 150.595 C 111.956 149.411, 111.111 149.557, 106.633 151.880 C 99.892 155.378, 91.495 155.461, 84.844 152.095 C 80.830 150.064, 79.740 149.895, 76.944 150.870 C 72.334 152.477, 68.804 152.276, 63.833 150.125 C 52.999 145.436, 50.483 139.971, 46.054 111.500 C 43.617 95.833, 39.850 74.517, 39.448 74.115 C 38.664 73.331, 38.994 77.241, 40.494 86.500 C 47.482 129.649, 48.569 135.234, 50.839 139.684 C 53.148 144.210, 57.335 148.605, 61.283 150.646 C 65.233 152.689, 73.229 153.464, 76.953 152.166 C 79.593 151.246, 80.741 151.421, 84.291 153.288 C 90.351 156.473, 101.927 156.430, 107.390 153.201 C 110.655 151.271, 111.764 151.071, 114.289 151.951 C 122.003 154.640, 131.217 151.904, 136.920 145.231 C 141.449 139.933, 143.272 134.310, 146.014 117.175 C 148.087 104.222, 151.780 81.951, 153.009 75 C 153.996 69.412, 153.277 65.320, 151.164 64.510 C 149.305 63.796, 146.695 66.763, 147.450 68.731 C 147.722 69.439, 147.480 72.377, 146.912 75.260 C 145.936 80.206, 144.967 85.992, 140.084 116 C 137.520 131.756, 136.447 135.600, 133.333 140.175 C 130.561 144.249, 124.976 147, 119.480 147 C 116.007 147, 115.233 146.247, 116.860 144.450 C 117.333 143.928, 118.539 141.160, 119.540 138.300 C 121.274 133.344, 121.280 132.687, 119.673 124.300 C 118.746 119.460, 117.990 112.774, 117.993 109.441 C 118.001 102.623, 116.340 99.272, 113.496 100.363 C 111.875 100.985, 111.758 102.081, 112.271 111.776 C 112.584 117.674, 113.372 124.608, 114.022 127.184 C 115.009 131.094, 114.936 132.677, 113.580 136.760 C 108.957 150.676, 92.797 154.639, 82.532 144.374 C 76.955 138.797, 76.465 135.851, 78.446 119.785 C 80.403 103.901, 80.394 97.973, 78.385 80.235 C 76.595 64.435, 76.966 62.076, 81.798 58.500 C 84.137 56.769, 86.067 56.500, 96.170 56.500 C 107.041 56.500, 108.010 56.661, 110.339 58.849 C 114.395 62.659, 115.362 66.086, 114.074 72.088 C 113.460 74.954, 112.675 81.270, 112.331 86.124 C 111.786 93.789, 111.922 95.033, 113.365 95.586 C 116.051 96.617, 118 94.130, 118 89.671 C 118 87.425, 118.737 81.165, 119.637 75.761 C 121.189 66.448, 121.180 65.726, 119.481 61.957 C 118.494 59.769, 118.018 57.649, 118.422 57.245 C 118.826 56.840, 123.555 56.535, 128.930 56.565 C 137.421 56.613, 139.067 56.908, 141.486 58.810 C 144.722 61.356, 147.814 61.648, 148.643 59.487 C 149.421 57.460, 147.461 55.276, 142.668 52.831 C 140.487 51.718, 137.082 49.220, 135.102 47.280 C 129.419 41.713, 123.829 39.728, 115.310 40.251 C 111.355 40.493, 107.567 40.351, 106.892 39.933 C 105.241 38.913, 111.651 35.011, 115 34.998 C 120.034 34.979, 124.756 33.038, 125.374 30.734 C 126.426 26.808, 126.046 22.510, 124.443 20.223 C 123.129 18.346, 122.001 18.014, 117.193 18.090 C 114.062 18.140, 109.988 18.616, 108.139 19.147 M 112 22.919 C 103.444 24.704, 96.513 30.385, 92.858 38.608 C 91.405 41.876, 90.146 43.054, 86.700 44.370 C 81.520 46.349, 75.100 52.500, 76.625 54.025 C 77.320 54.720, 78.811 54.559, 81.291 53.523 C 86.316 51.423, 106.342 51.408, 110.354 53.501 C 113.356 55.066, 115 54.746, 115 52.596 C 115 50.833, 111.710 48.007, 106.171 45.012 C 100.726 42.068, 99.931 39.772, 103.159 36.316 C 106.446 32.797, 110.753 30.696, 116 30.052 C 120.371 29.516, 120.500 29.400, 120.500 26 C 120.500 22.975, 120.161 22.479, 118 22.344 C 116.625 22.259, 113.925 22.517, 112 22.919 M 109.554 24.727 C 103.584 26.246, 94.807 34.937, 93.340 40.781 C 92.940 42.373, 91.345 43.780, 88.611 44.952 C 84.157 46.861, 78 51.596, 78 53.112 C 78 53.626, 79.218 53.248, 80.706 52.273 C 84.584 49.732, 105.963 49.764, 110.750 52.318 C 112.537 53.271, 114 53.593, 114 53.032 C 114 51.722, 106.312 46.070, 102.830 44.819 C 98.030 43.095, 98.349 38.802, 103.649 33.821 C 106.622 31.027, 113.877 28.040, 117.750 28.015 C 119.328 28.004, 120 27.403, 120 26 C 120 24.296, 119.372 24.017, 115.750 24.116 C 113.412 24.180, 110.624 24.455, 109.554 24.727 M 172 40.407 C 172 42.252, 172.651 43.125, 174.342 43.550 C 176.675 44.135, 176.685 44.208, 176.790 60.613 L 176.896 77.089 174.448 78.020 C 173.044 78.554, 172 79.755, 172 80.838 C 172 82.507, 173.101 82.807, 181.504 83.424 C 192.866 84.258, 198.358 83.565, 203.573 80.639 C 208.206 78.040, 209.965 74.952, 209.985 69.385 C 210.002 64.824, 207.347 60.562, 203.787 59.432 C 201.921 58.840, 201.834 58.593, 203.150 57.623 C 207.878 54.137, 208.327 46.518, 204.085 41.766 L 201.169 38.500 186.585 38.176 L 172 37.852 172 40.407 M 213 40.433 C 213 41.987, 213.722 43.094, 215 43.500 C 216.896 44.102, 217 45.013, 217 60.951 C 217 77.159, 216.925 77.786, 214.913 78.312 C 213.561 78.666, 212.949 79.500, 213.176 80.679 C 213.496 82.343, 215.007 82.524, 230.738 82.774 L 247.950 83.047 248.475 80.524 C 248.764 79.136, 249.216 76.943, 249.481 75.652 C 249.854 73.832, 249.357 73.028, 247.272 72.078 C 244.523 70.825, 243.783 71.259, 241.182 75.651 C 240.807 76.283, 237.463 77.123, 233.750 77.517 L 227 78.233 227 70.616 L 227 63 230.883 63 C 233.972 63, 234.878 63.425, 235.309 65.074 C 235.725 66.666, 236.507 67.072, 238.676 66.824 C 241.446 66.506, 241.500 66.379, 241.500 60.109 C 241.500 55.006, 241.134 53.495, 239.683 52.609 C 238.179 51.691, 237.472 51.988, 235.581 54.331 C 233.841 56.487, 232.605 57.083, 230.398 56.831 C 227.583 56.509, 227.492 56.322, 227.202 50.250 L 226.905 44 233.046 44 C 238.357 44, 239.258 44.272, 239.713 46.011 C 240.293 48.229, 244.607 49.793, 246.081 48.319 C 246.594 47.806, 246.725 45.274, 246.371 42.693 L 245.728 38 229.364 38 L 213 38 213 40.433 M 252 40.594 C 252 42.346, 252.649 43.357, 254 43.710 C 255.900 44.207, 256 45.074, 256 61 C 256 76.926, 255.900 77.793, 254 78.290 C 252.803 78.603, 252 79.654, 252 80.906 C 252 82.944, 252.429 83, 267.941 83 C 277.230 83, 284.134 82.593, 284.485 82.024 C 284.817 81.487, 285.351 78.835, 285.671 76.131 C 286.206 71.613, 286.064 71.155, 283.913 70.472 C 282.198 69.928, 281.296 70.198, 280.537 71.483 C 278.017 75.747, 276.341 76.805, 271.250 77.347 L 266 77.906 266 60.953 L 266 44 268.500 44 C 270.611 44, 271 43.533, 271 41 L 271 38 261.500 38 L 252 38 252 40.594 M 288 40.594 C 288 42.346, 288.649 43.357, 290 43.710 C 291.900 44.207, 292 45.074, 292 61 C 292 76.926, 291.900 77.793, 290 78.290 C 288.803 78.603, 288 79.654, 288 80.906 C 288 82.944, 288.429 83, 303.941 83 C 313.230 83, 320.134 82.593, 320.485 82.024 C 320.817 81.487, 321.351 78.835, 321.671 76.131 C 322.206 71.613, 322.064 71.155, 319.913 70.472 C 318.198 69.928, 317.296 70.198, 316.537 71.483 C 314.017 75.747, 312.341 76.805, 307.250 77.347 L 302 77.906 302 60.953 L 302 44 304.417 44 C 307.005 44, 307.951 42.566, 307.221 39.750 C 306.829 38.240, 305.480 38, 297.383 38 L 288 38 288 40.594 M 56.318 47.195 C 53.638 49.563, 49.822 52.362, 47.839 53.415 C 43.893 55.510, 38.987 62.206, 39.022 65.450 C 39.037 66.824, 39.645 66.177, 40.865 63.491 C 42.739 59.367, 49.091 53, 51.332 53 C 52.026 53, 54.352 51.200, 56.500 49 C 58.648 46.800, 61.215 45, 62.203 45 C 64.305 45, 64.505 46.065, 62.750 47.925 C 61.741 48.994, 61.789 49.162, 63 48.792 C 65.064 48.161, 64.938 43.612, 62.845 43.209 C 61.935 43.033, 58.998 44.827, 56.318 47.195 M 186.775 43.750 C 186.586 44.163, 186.447 47.200, 186.466 50.500 C 186.500 56.460, 186.521 56.502, 189.577 56.800 C 194.128 57.245, 197.400 54.197, 197.400 49.512 C 197.400 46.992, 196.781 45.313, 195.509 44.383 C 193.512 42.923, 187.357 42.477, 186.775 43.750 M 115.187 44.863 C 114.170 45.508, 114.472 46.408, 116.526 48.848 C 118.993 51.780, 119.624 52, 125.589 52 C 129.115 52, 132 51.620, 132 51.155 C 132 49.453, 128.068 46.825, 123.436 45.431 C 117.969 43.785, 116.993 43.718, 115.187 44.863 M 118.087 48.542 C 120.336 50.790, 121.139 51.001, 125.064 50.369 L 129.500 49.655 125.500 47.854 C 123.300 46.863, 120.160 46.041, 118.523 46.026 L 115.545 46 118.087 48.542 M 50.500 57.282 C 43.063 61.462, 41.717 67.433, 44.560 83.619 C 45.418 88.504, 47.685 101.892, 49.597 113.370 C 53.699 137.997, 55.600 142.641, 63.200 146.595 C 66.339 148.228, 77 148.510, 77 146.960 C 77 146.388, 76.165 144.251, 75.144 142.210 C 72.276 136.476, 71.990 133.040, 73.535 122.889 C 75.389 110.706, 75.383 91.279, 73.520 77.155 C 72.171 66.921, 72.185 65.578, 73.686 61.827 C 75.248 57.923, 75.237 57.647, 73.474 56.358 C 72.248 55.461, 68.713 55.006, 63.059 55.016 C 56.057 55.030, 53.772 55.442, 50.500 57.282 M 55.500 56.733 C 50.861 57.403, 46.213 61.496, 45.008 65.971 C 43.935 69.956, 44.258 72.637, 50.018 107.500 C 54.687 135.766, 55.410 138.259, 60.245 142.774 C 64.348 146.606, 75 148.616, 75 145.559 C 75 144.766, 74.605 143.874, 74.123 143.576 C 73.641 143.278, 72.724 140.960, 72.085 138.425 C 71.157 134.739, 71.271 130.433, 72.652 116.932 C 74.294 100.887, 74.292 99.187, 72.623 82.733 C 71.087 67.599, 71.043 64.904, 72.274 61.330 L 73.683 57.241 68.592 56.629 C 63.265 55.989, 60.497 56.011, 55.500 56.733 M 186 70.500 L 186 78 190.927 78 C 195.060 78, 196.189 77.575, 197.927 75.365 C 200.551 72.030, 200.582 67.582, 198 65 C 196.533 63.533, 194.667 63, 191 63 L 186 63 186 70.500 M 172.667 90.667 C 171.143 92.191, 172.144 95.104, 174.500 96 L 177 96.950 177 113.406 C 177 129.709, 176.979 129.864, 174.750 130.180 C 173.102 130.415, 172.500 131.169, 172.500 133 C 172.500 135.494, 172.526 135.501, 183.250 135.784 L 194 136.068 194 133.641 C 194 131.171, 192.365 130, 188.918 130 C 187.260 130, 187 129.255, 187 124.500 L 187 119 191.640 119 C 197.479 119, 203.847 115.896, 206.775 111.623 C 209.689 107.371, 209.806 99.940, 207.020 96.028 C 203.529 91.126, 199.559 90, 185.766 90 C 178.928 90, 173.033 90.300, 172.667 90.667 M 211.667 90.667 C 211.300 91.033, 211 92.383, 211 93.667 C 211 95.333, 211.571 96, 213 96 C 214.921 96, 215 96.667, 215 112.883 C 215 128.926, 214.900 129.793, 213 130.290 C 211.649 130.643, 211 131.654, 211 133.406 L 211 136 227.941 136 C 237.259 136, 245.090 135.662, 245.344 135.250 C 245.598 134.838, 246.116 132.422, 246.496 129.882 C 247.163 125.428, 247.088 125.239, 244.383 124.560 C 242.259 124.027, 241.274 124.298, 240.323 125.678 C 237.590 129.647, 236.824 130, 230.961 130 L 225 130 225 122.571 L 225 115.142 228.448 115.321 C 230.949 115.451, 232.179 116.118, 232.927 117.750 C 233.598 119.216, 234.836 120, 236.479 120 C 238.950 120, 239 119.850, 239 112.500 C 239 105.150, 238.950 105, 236.479 105 C 234.836 105, 233.598 105.784, 232.927 107.250 C 232.179 108.882, 230.949 109.549, 228.448 109.679 L 225 109.858 225 102.929 L 225 96 230.521 96 C 235.441 96, 236.167 96.273, 237.182 98.500 C 238.008 100.312, 239.102 101, 241.161 101 C 243.797 101, 244 100.719, 244 97.082 C 244 89.788, 244.492 90, 227.560 90 C 219.185 90, 212.033 90.300, 211.667 90.667 M 249.667 90.667 C 248.143 92.191, 249.144 95.104, 251.500 96 L 254 96.950 254 113.406 C 254 129.709, 253.979 129.864, 251.750 130.180 C 250.102 130.415, 249.500 131.169, 249.500 133 C 249.500 135.494, 249.526 135.501, 260.250 135.784 L 271 136.068 271 133.641 C 271 131.171, 269.365 130, 265.918 130 C 264.260 130, 264 129.255, 264 124.500 L 264 119 268.473 119 C 273.819 119, 280.718 115.859, 283.500 112.160 C 286.237 108.520, 286.334 98.132, 283.659 95.176 C 279.867 90.985, 275.890 90, 262.766 90 C 255.928 90, 250.033 90.300, 249.667 90.667 M 287.667 90.667 C 287.300 91.033, 287 92.352, 287 93.597 C 287 95.183, 287.673 95.957, 289.250 96.180 C 291.468 96.495, 291.504 96.738, 291.774 113.177 L 292.048 129.855 289.774 130.177 C 288.138 130.410, 287.411 131.271, 287.184 133.250 L 286.867 136 297.465 136 C 306.002 136, 308.176 135.706, 308.643 134.487 C 309.457 132.368, 307.206 130, 304.378 130 C 302.162 130, 302 129.624, 302 124.500 L 302 119 306.750 118.984 C 312.220 118.965, 318.205 115.993, 321.370 111.725 C 323.971 108.218, 324.201 99.481, 321.789 95.801 C 318.776 91.202, 314.418 90, 300.766 90 C 293.928 90, 288.033 90.300, 287.667 90.667 M 325.638 91.500 C 324.765 93.775, 325.986 96, 328.107 96 C 329.889 96, 330 96.982, 330 112.763 C 330 129.187, 329.955 129.546, 327.750 130.513 C 326.496 131.063, 325.500 132.385, 325.500 133.500 C 325.500 135.410, 326.258 135.512, 342.425 135.775 C 351.734 135.926, 359.669 135.701, 360.058 135.275 C 360.448 134.849, 361.063 132.416, 361.427 129.869 C 362.060 125.426, 361.975 125.211, 359.327 124.546 C 357.026 123.968, 356.148 124.365, 354.034 126.936 C 351.737 129.730, 350.963 130.017, 345.750 130.009 L 340 130 340 122.393 C 340 115.867, 340.225 114.872, 341.582 115.393 C 342.452 115.727, 344.069 116, 345.175 116 C 346.364 116, 347.407 116.841, 347.724 118.054 C 348.123 119.580, 348.934 120.030, 350.881 119.804 C 353.428 119.508, 353.500 119.308, 353.500 112.500 C 353.500 105.692, 353.428 105.492, 350.881 105.196 C 348.934 104.970, 348.123 105.420, 347.724 106.946 C 347.407 108.159, 346.364 109, 345.175 109 C 344.069 109, 342.452 109.273, 341.582 109.607 C 340.231 110.125, 340 109.177, 340 103.107 L 340 96 345.525 96 C 350.498 96, 351.144 96.250, 352 98.500 C 352.725 100.406, 353.669 101, 355.975 101 C 359.263 101, 359.678 99.640, 358.375 93.125 L 357.750 90 341.982 90 C 328.888 90, 326.116 90.254, 325.638 91.500 M 364.667 90.667 C 364.300 91.033, 364 92.352, 364 93.597 C 364 95.183, 364.673 95.957, 366.250 96.180 C 368.468 96.495, 368.504 96.738, 368.774 113.177 L 369.048 129.855 366.774 130.177 C 365.138 130.410, 364.411 131.271, 364.184 133.250 L 363.867 136 373.827 136 C 382.102 136, 383.892 135.725, 384.410 134.373 C 385.200 132.315, 383.330 130, 380.878 130 C 379.231 130, 379 129.191, 379 123.433 C 379 117.091, 379.077 116.888, 381.250 117.534 C 384.250 118.425, 385.597 120.238, 389.225 128.266 C 392.571 135.671, 393.634 136.348, 401.080 135.816 C 404.704 135.557, 405.500 135.145, 405.500 133.530 C 405.500 132.443, 404.412 131.017, 403.075 130.350 C 401.742 129.685, 398.789 126.085, 396.513 122.349 L 392.375 115.556 395.169 113.204 C 396.706 111.911, 398.480 109.129, 399.111 107.023 C 401.289 99.756, 398.435 93.624, 391.685 91.067 C 388.637 89.912, 365.760 89.573, 364.667 90.667 M 415.209 91.605 C 410.203 94.168, 408 97.578, 408 102.767 C 408 106.599, 408.510 107.745, 411.451 110.518 C 413.349 112.308, 417.798 115.393, 421.338 117.373 C 427.931 121.059, 429 122.348, 429 126.607 C 429 128.309, 428.222 129.345, 426.435 130.025 C 420.524 132.272, 415.069 130.213, 413.784 125.250 C 413.115 122.666, 412.427 122, 410.424 122 C 407.971 122, 407.912 122.163, 408.202 128.190 C 408.498 134.342, 408.522 134.386, 411.997 135.283 C 413.920 135.779, 419.242 136.031, 423.823 135.842 C 432.047 135.504, 432.199 135.451, 435.693 131.638 C 438.988 128.043, 439.199 127.424, 438.745 122.696 C 438.178 116.794, 436.779 115.296, 425.929 108.959 C 416.472 103.435, 414.328 98.347, 420.474 96.010 C 423.451 94.878, 428.990 95.763, 429.022 97.375 C 429.034 97.994, 429.916 99.625, 430.980 101 C 432.542 103.017, 433.254 103.291, 434.663 102.420 C 437.003 100.972, 437.531 93.685, 435.421 91.935 C 432.898 89.840, 419.095 89.615, 415.209 91.605 M 187 104.500 L 187 113 191.385 113 C 196.767 113, 199 110.270, 199 103.690 C 199 98.130, 196.832 96, 191.171 96 L 187 96 187 104.500 M 264 104.500 L 264 113 267.826 113 C 273.052 113, 276 109.821, 276 104.186 C 276 98.655, 273.405 96, 268 96 L 264 96 264 104.500 M 302 104.500 L 302 113 305.845 113 C 311.214 113, 313.500 110.257, 313.500 103.814 C 313.500 97.908, 311.622 96, 305.809 96 L 302 96 302 104.500 M 379 104.131 L 379 112.262 382.750 111.661 C 387.267 110.938, 390 107.904, 390 103.612 C 390 98.615, 387.576 96, 382.943 96 L 379 96 379 104.131" stroke="none" fill="#3296d7" fill-rule="evenodd"/></svg>